<svg width="60" height="32" viewBox="0 0 60 32" fill="none" xmlns="http://www.w3.org/2000/svg">
<path d="M9.01367 19.2695C9.01367 18.7161 8.81836 18.293 8.42773 18C8.03711 17.7005 7.33398 17.388 6.31836 17.0625C5.30273 16.7305 4.4987 16.4049 3.90625 16.0859C2.29167 15.2135 1.48438 14.0384 1.48438 12.5605C1.48438 11.7923 1.69922 11.1087 2.12891 10.5098C2.5651 9.9043 3.18685 9.43229 3.99414 9.09375C4.80794 8.75521 5.7194 8.58594 6.72852 8.58594C7.74414 8.58594 8.64909 8.77148 9.44336 9.14258C10.2376 9.50716 10.8529 10.0247 11.2891 10.6953C11.7318 11.3659 11.9531 12.1276 11.9531 12.9805H9.02344C9.02344 12.3294 8.81836 11.8249 8.4082 11.4668C7.99805 11.1022 7.42188 10.9199 6.67969 10.9199C5.96354 10.9199 5.4069 11.0729 5.00977 11.3789C4.61263 11.6784 4.41406 12.0755 4.41406 12.5703C4.41406 13.0326 4.64518 13.4199 5.10742 13.7324C5.57617 14.0449 6.26302 14.3379 7.16797 14.6113C8.83464 15.1126 10.0488 15.7344 10.8105 16.4766C11.5723 17.2188 11.9531 18.1432 11.9531 19.25C11.9531 20.4805 11.4876 21.4473 10.5566 22.1504C9.62565 22.847 8.3724 23.1953 6.79688 23.1953C5.70312 23.1953 4.70703 22.9967 3.80859 22.5996C2.91016 22.196 2.22331 21.6458 1.74805 20.9492C1.2793 20.2526 1.04492 19.4453 1.04492 18.5273H3.98438C3.98438 20.0964 4.92188 20.8809 6.79688 20.8809C7.49349 20.8809 8.03711 20.7409 8.42773 20.4609C8.81836 20.1745 9.01367 19.7773 9.01367 19.2695ZM18.3984 17.2969L16.875 18.9375V23H13.9453V8.78125H16.875V15.2266L18.1641 13.459L21.7871 8.78125H25.3906L20.3418 15.0996L25.5371 23H22.0508L18.3984 17.2969ZM35.1953 16.8379H29.5703V20.6465H36.1719V23H26.6406V8.78125H36.1523V11.1543H29.5703V14.543H35.1953V16.8379ZM37.8906 23V8.78125H42.2656C43.5156 8.78125 44.6322 9.06445 45.6152 9.63086C46.6048 10.1908 47.3763 10.9915 47.9297 12.0332C48.4831 13.0684 48.7598 14.2467 48.7598 15.5684V16.2227C48.7598 17.5443 48.4863 18.7194 47.9395 19.748C47.3991 20.7767 46.6341 21.5742 45.6445 22.1406C44.6549 22.707 43.5384 22.9935 42.2949 23H37.8906ZM40.8203 11.1543V20.6465H42.2363C43.3822 20.6465 44.2578 20.2721 44.8633 19.5234C45.4688 18.7747 45.778 17.7038 45.791 16.3105V15.5586C45.791 14.1133 45.4915 13.0195 44.8926 12.2773C44.2936 11.5286 43.418 11.1543 42.2656 11.1543H40.8203Z" fill="#1e293b"/>
<circle cx="52.9332" cy="12.9332" r="1.93324" transform="rotate(-90 52.9332 12.9332)" fill="#6366f1"/>
<circle cx="52.9332" cy="19.2854" r="1.93324" transform="rotate(-90 52.9332 19.2854)" fill="#6366f1"/>
<circle cx="57.7663" cy="16.1093" r="1.93324" transform="rotate(-90 57.7663 16.1093)" fill="#6366f1"/>
</svg>
