<?xml version="1.0" standalone="no"?>
<!DOCTYPE svg PUBLIC "-//W3C//DTD SVG 20010904//EN"
 "http://www.w3.org/TR/2001/REC-SVG-20010904/DTD/svg10.dtd">
<svg version="1.0" xmlns="http://www.w3.org/2000/svg"
 width="700.000000pt" height="700.000000pt" viewBox="0 0 700.000000 700.000000"
 preserveAspectRatio="xMidYMid meet">
<metadata>
Created by potrace 1.11, written by Peter Selinger 2001-2013
</metadata>
<g transform="translate(0.000000,700.000000) scale(0.100000,-0.100000)"
fill="#000000" stroke="none">
<path d="M1915 5204 c-107 -16 -262 -51 -335 -76 -407 -142 -640 -437 -640
-808 0 -225 82 -415 249 -580 170 -168 387 -281 841 -435 307 -105 431 -166
511 -252 64 -68 84 -126 84 -243 0 -84 -3 -102 -28 -152 -69 -140 -220 -208
-467 -208 -192 0 -327 33 -434 104 -111 75 -168 178 -189 339 l-11 87 -329 0
-330 0 7 -87 c31 -413 291 -722 734 -877 163 -56 290 -78 501 -84 442 -12 755
85 979 302 92 89 152 184 193 306 27 80 32 114 37 222 15 373 -125 624 -469
840 -129 81 -306 157 -579 247 -402 134 -555 222 -616 355 -23 51 -26 67 -22
135 6 93 36 158 101 218 100 92 213 127 407 127 118 -1 145 -4 217 -28 179
-58 282 -184 301 -366 l7 -65 329 -3 329 -2 -6 92 c-15 215 -108 416 -264 571
-87 86 -145 127 -263 186 -201 101 -337 132 -610 136 -113 2 -218 1 -235 -1z"/>
<path d="M3740 3570 l0 -1600 330 0 330 0 0 456 0 457 98 105 c53 58 131 141
172 185 l75 79 410 -641 410 -641 393 0 393 0 -19 28 c-19 26 -868 1317 -1058
1609 l-93 142 565 705 c310 388 564 708 564 711 0 3 -181 5 -402 5 l-403 -1
-412 -532 c-226 -293 -474 -617 -550 -722 l-138 -190 -3 723 -2 722 -330 0
-330 0 0 -1600z"/>
</g>
</svg>
